<?xml version="1.0" encoding="UTF-8"?><svg id="Layer_1" xmlns="http://www.w3.org/2000/svg" xmlns:xlink="http://www.w3.org/1999/xlink" viewBox="0 0 300 100"><g id="tagline"><a xlink:href="50.3854901960784"><path id="tagline_PathItem_" d="m69.37,71.02v8.51c0,4.76-3.27,8.08-9.37,8.08s-9.35-3.31-9.35-8.08v-8.51h3.12v8.33c0,3.61,2.28,5.8,6.37,5.8s6.39-2.19,6.39-5.8v-8.33h2.84Z" fill="#00adda"/></a><a xlink:href="50.3854901960784"><polygon id="tagline_PathItem_-2" points="94.04 71.02 94.04 87.19 91.25 87.19 77.88 74.44 77.88 87.19 75.04 87.19 75.04 71.02 78.5 71.02 91.2 83.28 91.2 71.02 94.04 71.02 94.04 71.02" fill="#00adda"/></a><a xlink:href="50.3854901960784"><polygon id="tagline_PathItem_-3" points="100.56 71.02 103.4 71.02 103.4 87.19 100.56 87.19 100.56 71.02 100.56 71.02" fill="#00adda"/></a><a xlink:href="50.3854901960784"><polygon id="tagline_PathItem_-4" points="111.04 71.02 118.28 84.35 125.53 71.02 128.75 71.02 119.83 87.19 116.69 87.19 107.77 71.02 111.04 71.02 111.04 71.02" fill="#00adda"/></a><a xlink:href="50.3854901960784"><polygon id="tagline_PathItem_-5" points="149.91 84.64 149.91 87.19 132.89 87.19 132.89 71.02 149.91 71.02 149.91 73.29 136.01 73.29 136.01 77.55 147.64 77.55 147.64 80.1 136.01 80.1 136.01 84.64 149.91 84.64 149.91 84.64" fill="#00adda"/></a><path id="tagline_CompoundPathItem_" d="m166.82,78.68c2.41,0,4.05-.72,4.05-2.69s-1.64-2.69-4.05-2.69h-8.41v5.39h8.41Zm4.08,8.51l-5.41-5.95h-7.36v5.95h-2.84v-16.16h11.25c3.85,0,6.69,1.8,6.69,5.15,0,2.79-1.98,4.5-4.87,5.01l5.36,6h-2.82Z" fill="#00adda"/><a xlink:href="50.3854901960784"><path id="tagline_PathItem_-6" d="m197.18,82.27c0,3.06-3.21,5.25-9.03,5.25-4.01,0-7.56-1.1-10.23-3.27l1.84-1.96c2.33,1.96,5.07,2.83,8.52,2.83,3.82,0,5.92-.94,5.92-2.62s-2.15-2.09-6.46-2.44c-4.73-.37-9.18-1.36-9.18-4.65s3.94-4.97,8.86-4.97c3.72,0,6.88,1.04,8.94,2.67l-1.86,1.89c-1.76-1.45-4.19-2.14-7.03-2.16-2.72-.02-5.95.6-5.95,2.39s2.86,2,6.61,2.28c5.34.39,9.06,1.4,9.06,4.76h0Z" fill="#00adda"/></a><a xlink:href="50.3854901960784"><polygon id="tagline_PathItem_-7" points="202.37 71.02 205.2 71.02 205.2 87.19 202.37 87.19 202.37 71.02 202.37 71.02" fill="#00adda"/></a><a xlink:href="50.3854901960784"><polygon id="tagline_PathItem_-8" points="228.17 73.58 220.52 73.58 220.52 87.19 217.68 87.19 217.68 73.58 209.74 73.58 209.74 71.02 228.17 71.02 228.17 73.58 228.17 73.58" fill="#00adda"/></a><a xlink:href="50.3854901960784"><polygon id="tagline_PathItem_-9" points="234.08 71.02 240.39 79.22 246.65 71.02 249.91 71.02 241.78 81.6 241.78 87.19 238.95 87.19 238.95 81.6 230.8 71.02 234.08 71.02 234.08 71.02" fill="#00adda"/></a></g><g id="logoMark"><a xlink:href="85.4843137254902"><path id="logoMark_PathItem_" d="m146.56,44.79c-.08,10.19-8,15.3-21.1,15.3-9.41,0-17.02-3.07-22.86-8.51l6.26-8.95c4.14,3.84,9.9,6.33,16.99,6.33,3.04,0,5.32-.43,6.68-1.24.96-.57,1.29-1.51,1.29-2.25,0-1.61-1.18-2.33-2.53-2.79-2.13-.72-4.98-.9-7.3-1.28-2.29-.38-5.02-.84-7.52-1.52-6.42-1.76-12.44-5.02-12.44-12.34,0-10.08,8.77-15.16,20.51-15.16,7.6,0,15.32,2.36,20.55,6.64l-6.22,8.9c-4.09-3.33-8.97-4.82-14.4-4.82-2.75,0-5.73.41-7.05,1.63-.37.34-.66.91-.63,1.52,0,.71.44,1.33.91,1.63,1.35.84,4.05,1.21,7.96,1.85,8.52,1.41,20.92,4.13,20.92,15.04h0Z" fill="#0e2c47"/></a><a xlink:href="85.4843137254902"><polygon id="logoMark_PathItem_-2" points="97.7 48.92 97.7 58.78 58.27 58.78 58.27 13.11 97.7 13.11 97.7 22.97 71.03 22.97 71.03 31.02 92.77 31.02 92.77 40.87 71.03 40.87 71.03 48.92 97.7 48.92 97.7 48.92" fill="#0e2c47"/></a><a xlink:href="85.4843137254902"><path id="logoMark_PathItem_-3" d="m220.52,59.81h-.14c-13.83,0-21.62-7.72-21.62-19.88V13.15h12.75v25.7c0,5.86,2.78,9.75,9.01,9.75s9.01-3.89,9.01-9.75V13.15h12.75v26.77c0,12.17-7.79,19.89-21.62,19.89h-.14Z" fill="#0e2c47"/></a><path id="logoMark_CompoundPathItem_" d="m279.82,28.21c0-3.48-2.32-5.2-5.57-5.2h-11.55v10.44h11.55c3.25,0,5.57-1.75,5.57-5.23h0Zm12.75,0c0,9.59-6.78,15.08-17.19,15.08h-12.67v15.48h-12.75V13.15h25.43c10.41,0,17.19,5.53,17.19,15.07h0Z" fill="#0e2c47"/><a xlink:href="85.4843137254902"><path id="logoMark_PathItem_-4" d="m25.68,13.15v9.86h12.17v16.27c0,5.82-2.79,9.68-9,9.68-5,0-7.78-2.47-8.7-6.42H7.43c.91,10.81,8.37,17.55,21.44,17.55,13.94,0,21.74-7.66,21.74-19.75V13.15h-24.93Z" fill="#0e2c47"/></a><a xlink:href="85.4843137254902"><path id="logoMark_PathItem_-5" d="m193.92,44.79c-.08,10.19-8,15.3-21.1,15.3-9.41,0-17.02-3.07-22.86-8.51l6.26-8.95c4.14,3.84,9.9,6.33,16.99,6.33,3.04,0,5.32-.43,6.68-1.24.96-.57,1.29-1.51,1.29-2.25,0-1.61-1.18-2.33-2.53-2.79-2.13-.72-4.98-.9-7.3-1.28-2.29-.38-5.02-.84-7.52-1.52-6.42-1.76-12.44-5.02-12.44-12.34,0-10.08,8.77-15.16,20.51-15.16,7.6,0,15.32,2.36,20.55,6.64l-6.22,8.9c-4.09-3.33-8.97-4.82-14.4-4.82-2.75,0-5.73.41-7.05,1.63-.37.34-.66.91-.63,1.52,0,.71.44,1.33.91,1.63,1.35.84,4.05,1.21,7.96,1.85,8.52,1.41,20.92,4.13,20.92,15.04h0Z" fill="#0e2c47"/></a></g></svg>